<svg xmlns="http://www.w3.org/2000/svg" xmlns:xlink="http://www.w3.org/1999/xlink" viewBox="0,0,256,256" width="64px" height="64px"><g fill="#294792" fill-rule="nonzero" stroke="none" stroke-width="1" stroke-linecap="butt" stroke-linejoin="miter" stroke-miterlimit="10" stroke-dasharray="" stroke-dashoffset="0" font-family="none" font-weight="none" font-size="none" text-anchor="none" style="mix-blend-mode: normal"><g transform="scale(2,2)"><path d="M64,16c-9.5,0 -17.89922,4.90039 -22.69922,12.40039c-2.6,-0.6 -5.5,-0.60039 -8.5,0.59961c-5.6,2.2 -9.60078,7.4 -9.80078,13.5c-0.2,4.6 1.80039,8.79922 4.90039,11.69922c-2.2,3 -3.30078,6.70078 -2.80078,10.80078c0.8,6.7 6.20039,12.1 12.90039,13c3,0.4 5.79922,-0.09922 8.19922,-1.19922c0,0 0.70078,-0.30156 1.30078,-0.60156c1.3,-0.8 1.4,-2.79961 0.5,-4.09961c-2.6,-3.6 -4,-7.79961 -4,-12.09961c0,-1.1 0.90039,-1.90039 1.90039,-1.90039h7.19922c3.1,0 6.40117,-0.40039 9.70117,-1.40039c6.6,-2 11.99883,-5.99922 15.29883,-10.69922c0.4,-0.6 0.79961,-1.09922 1.09961,-1.69922c0.8,-1.4 2.6,-2.10039 4,-1.40039c1.6,0.8 2.10078,2.69922 1.30078,4.19922c-0.5,0.9 -1.09922,1.79961 -1.69922,2.59961c-0.6,0.8 -0.70078,1.90039 -0.30078,2.90039c1,2.4 1.50039,5.10039 1.40039,7.90039c-0.2,9.4 -7.2,17.59922 -16.5,19.19922c-3,0.5 -6.00039,0.40156 -8.90039,-0.39844c-1.5,-0.4 -3.20078,0.29883 -3.80078,1.79883c-0.6,1.6 0.3,3.40039 2,3.90039c2.3,0.7 4.70117,1 7.20117,1c7.7,0 14.60039,-3.39922 19.40039,-8.69922c2,0.7 4.19961,0.89961 6.59961,0.59961c7,-0.9 12.5,-6.80078 13,-13.80078c0.3,-3.8 -0.90039,-7.2 -2.90039,-10c3.2,-2.9 5.10039,-7.09922 4.90039,-11.69922c-0.1,-6 -4.20078,-11.30039 -9.80078,-13.40039c-3,-1.1 -5.80039,-1.19961 -8.40039,-0.59961c-4.8,-7.5 -13.19922,-12.40039 -22.69922,-12.40039zM64,91c-16.4,0 -31.59922,8.89961 -39.69922,23.09961c-0.8,1.4 -0.30039,3.29961 1.09961,4.09961c1.4,0.8 3.29961,0.30039 4.09961,-1.09961c7.1,-12.4 20.3,-20.09961 34.5,-20.09961c14.2,0 27.4,7.69961 34.5,20.09961c0.6,1 1.59961,1.5 2.59961,1.5c0.5,0 1,-0.10039 1.5,-0.40039c1.4,-0.8 1.89961,-2.69961 1.09961,-4.09961c-8.1,-14.2 -23.29922,-23.09961 -39.69922,-23.09961z"></path></g></g></svg>